<?xml version="1.0" encoding="UTF-8" standalone="no"?>
<!DOCTYPE svg PUBLIC "-//W3C//DTD SVG 1.1//EN" "http://www.w3.org/Graphics/SVG/1.1/DTD/svg11.dtd">
<svg xmlns="http://www.w3.org/2000/svg" xmlns:xl="http://www.w3.org/1999/xlink" version="1.1" xmlns:dc="http://purl.org/dc/elements/1.1/" viewBox="0 0 1100 1100" width="1100" height="1100">
  <defs/>
  <g id="Canvas_1" stroke-dasharray="none" stroke-opacity="1" fill="none" fill-opacity="1" stroke="none">
    <title>Canvas 1</title>
    <g id="Canvas_1_Layer_1">
      <title>Layer 1</title>
      <g id="Graphic_10">
        <title>path478</title>
        <path d="M 4.505 246 C 4.505 112.62 112.625 4.5 246.005 4.5 L 853.995 4.5 C 987.375 4.5 1095.495 112.62 1095.495 246 L 1095.495 854 C 1095.495 987.37 987.375 1095.5 853.995 1095.5 L 246.005 1095.5 C 112.625 1095.5 4.505 987.37 4.505 854 Z" fill="#d43900"/>
      </g>
      <g id="Graphic_11">
        <path d="M 618.6514 268.37516 C 636.2458 222.551 646.8247 188.00892 650.3881 164.74894 C 654.0629 141.48895 652.5039 128.26853 645.7111 125.08767 C 638.807 121.80742 628.7849 127.32421 615.6448 141.63805 C 602.3933 155.95189 588.36234 177.27354 573.5519 205.60302 C 558.6301 233.8331 544.5991 267.82845 531.459 307.5891 C 518.20755 347.25038 508.3525 391.4344 501.8938 440.14123 C 515.59066 427.9148 529.4546 413.601 543.48555 397.1997 C 557.5165 380.69904 570.935 361.7133 583.74104 340.24256 C 596.5471 318.7718 608.18386 294.816 618.6514 268.37516 Z M 592.0928 828.7023 C 576.8369 841.6245 561.6367 854.1491 546.4922 866.2761 C 530.4568 878.5025 515.9804 889.9834 503.063 900.7188 C 490.257 911.4542 481.07005 920.7482 475.5022 928.601 C 469.823 936.4537 469.43326 942.1693 474.33296 945.7478 C 480.6803 948.6304 489.7002 947.3879 501.3927 942.0202 C 512.9738 936.6525 526.3923 925.0225 541.64816 907.1302 C 556.90404 889.2379 573.7189 863.0953 592.0928 828.7023 Z M 803.7264 662.3039 C 810.1851 656.638 816.1984 655.5943 821.7662 659.1728 C 824.2161 660.5644 825.8308 662.5027 826.6103 664.9878 C 827.3897 667.4728 827 669.80876 825.441 671.9956 C 814.194 683.4268 801.3879 694.7089 787.0229 705.84186 C 772.5465 716.8754 756.0657 729.20125 737.5805 742.8193 C 728.0038 749.9762 717.5919 757.481 706.3449 765.33375 C 691.089 808.2753 671.2675 845.7 646.88035 877.6079 C 622.38185 909.4164 597.10385 933.919 571.04636 951.1154 C 544.98886 968.3119 522.7732 975.8168 504.3993 973.6299 C 504.3993 973.6299 502.5619 973.6299 498.88714 973.6299 C 495.3237 973.6299 491.14784 973.282 486.3595 972.5862 C 481.4598 971.8904 476.44874 970.6479 471.32633 968.8586 C 466.09256 967.0694 461.861 964.7335 458.63165 961.8508 C 449.05497 953.3023 445.8256 943.6603 448.9436 932.9249 C 452.17296 922.1896 460.0236 910.3608 472.4956 897.4385 C 484.8562 884.5163 500.5018 870.8983 519.4325 856.5845 C 538.2518 842.2706 558.8528 826.9131 581.2355 810.5118 C 587.6942 805.4423 594.54265 800.4225 601.78084 795.45245 C 605.0102 788.2955 608.7963 774.6775 613.1392 754.5984 C 617.5935 734.6186 621.4353 713.1479 624.6647 690.1861 C 627.78266 667.3237 628.9519 647.6422 628.1724 631.1415 C 627.3929 614.74024 622.9943 605.7941 614.9766 604.30306 C 598.94124 610.7642 581.2912 624.581 562.02646 645.75355 C 542.7617 666.8267 524.3322 691.4783 506.7378 719.7084 C 489.1434 748.0379 474.33296 776.5164 462.30643 805.1441 C 450.2799 833.7718 443.0417 858.4731 440.59185 879.248 C 439.03285 889.9834 435.024 897.6374 428.5653 902.2098 C 422.1066 906.8817 414.31164 909.7644 405.1804 910.8578 C 395.93777 911.9512 386.91786 912.15 378.12068 911.4542 L 368.43263 911.4542 C 361.19444 911.4542 357.4083 899.6254 357.07424 875.9678 C 356.6288 852.3102 358.1878 822.0921 361.75122 785.3135 C 365.426 748.4355 370.0473 709.2215 375.61515 667.6716 C 381.29435 626.2211 386.91786 587.0569 392.4857 550.17886 C 398.05355 513.30085 402.8419 482.68514 406.85073 458.33173 C 407.7416 452.66584 408.57677 447.64605 409.35626 443.2724 C 419.71245 377.4685 435.13537 321.10774 455.625 274.19016 C 476.1147 227.37198 498.5531 189.64905 522.9402 161.02137 C 547.4387 132.3937 570.8793 113.25888 593.26204 103.61692 C 615.7561 93.87555 634.24135 93.47795 648.7177 102.4241 C 663.0828 111.37025 670.488 130.00806 670.9334 158.33753 C 671.2675 186.5676 661.85784 223.94262 642.7045 270.4626 C 628.2281 304.15976 612.58245 333.68205 595.7676 359.02947 C 578.9527 384.4763 562.08214 406.14586 545.1559 424.03816 C 528.341 441.93046 512.75107 456.2443 498.38604 466.9797 C 488.698 517.7739 481.4598 558.5783 476.67146 589.3928 C 471.8831 620.1079 467.87427 648.338 464.6449 674.083 C 461.4156 697.0448 457.40673 723.53535 452.6184 753.55465 C 470.21276 709.2215 493.2636 672.1944 521.77097 642.4733 C 550.2783 612.7522 578.9527 593.6174 607.7941 585.06884 C 617.3708 582.882 627.1702 582.5341 637.1923 584.0251 C 647.2144 585.41675 656.6241 587.5539 665.4213 590.4365 L 666.75754 590.4365 C 681.1226 594.015 691.7015 601.7186 698.4942 613.5474 C 705.39836 625.2768 709.8526 638.696 711.85705 653.8051 C 713.8615 668.8147 714.4183 683.2777 713.5274 697.1939 C 712.7479 711.20955 711.5787 722.4916 710.0197 731.0402 L 710.0197 736.4079 C 729.2844 724.2809 748.1037 710.3149 766.4776 694.5101 C 784.9628 678.8046 797.3791 668.0692 803.7264 662.3039 Z" fill="white"/>
      </g>
    </g>
  </g>
</svg>
