<?xml version="1.0" standalone="no"?>
<!DOCTYPE svg PUBLIC "-//W3C//DTD SVG 20010904//EN"
 "http://www.w3.org/TR/2001/REC-SVG-20010904/DTD/svg10.dtd">
<svg version="1.0" xmlns="http://www.w3.org/2000/svg"
 width="512.000000pt" height="512.000000pt" viewBox="0 0 512.000000 512.000000"
 preserveAspectRatio="xMidYMid meet">
<metadata>
Created by potrace 1.11, written by Peter Selinger 2001-2013
</metadata>
<g transform="translate(0.000000,512.000000) scale(0.100000,-0.100000)"
fill="#000000" stroke="none">
<path d="M3119 4475 c-53 -14 -152 -63 -218 -107 -54 -37 -184 -130 -191 -138
-3 -3 -30 -25 -60 -50 -355 -290 -974 -895 -1206 -1178 -10 -13 -27 -33 -38
-45 -43 -50 -116 -171 -122 -203 -16 -84 71 -195 236 -305 93 -62 677 -399
691 -399 15 0 10 -33 -20 -120 -44 -129 -176 -463 -246 -625 -7 -16 -29 -77
-50 -135 -20 -58 -40 -116 -46 -130 -18 -50 -46 -196 -44 -240 2 -98 47 -145
149 -156 73 -8 122 10 241 89 107 71 190 135 339 262 39 33 87 73 106 89 19
16 60 51 90 79 30 27 100 91 155 141 55 50 208 198 340 329 208 207 275 278
404 425 60 69 151 193 181 245 27 49 31 64 26 98 -17 105 -99 189 -319 327
-54 34 -100 62 -102 62 -2 0 -28 14 -57 31 -29 18 -78 46 -108 62 -30 17 -68
38 -85 48 -16 10 -50 29 -75 42 -25 14 -70 39 -100 56 -30 18 -63 35 -72 38
-24 7 -23 25 11 124 31 91 146 388 179 460 95 211 219 609 217 700 -1 97 -95
153 -206 124z"/>
</g>
</svg>
